<svg width="25" height="27" viewBox="0 0 25 27" fill="none" xmlns="http://www.w3.org/2000/svg">
<g clip-path="url(#clip0_5_93)">
<path d="M16.198 23.86C16.1166 24.3006 15.9731 24.7049 15.7663 25.0731C15.5527 25.453 15.273 25.7936 14.9276 26.0944C14.5822 26.3948 14.2054 26.6211 13.7991 26.7725C13.392 26.9239 12.9587 26.9999 12.5012 26.9999C12.0434 26.9999 11.6104 26.9239 11.203 26.7725C10.7965 26.6213 10.4201 26.3948 10.0747 26.0944C9.72909 25.7936 9.44947 25.4528 9.23586 25.0731C9.02267 24.6934 8.87656 24.2755 8.79709 23.8194C8.75843 23.5963 8.90283 23.3828 9.11965 23.3428C9.12649 23.3417 9.18993 23.3353 9.18993 23.3349H15.8122C16.0337 23.3349 16.2132 23.5194 16.2132 23.7469C16.2129 23.7862 16.208 23.824 16.198 23.86ZM14.6108 1.50921C14.9357 1.59644 15.2513 1.70235 15.5572 1.8265C16.0077 2.00931 16.4405 2.22991 16.8551 2.48721C16.8713 2.49754 16.8871 2.50853 16.9027 2.51973C17.3003 2.7711 17.67 3.0473 18.0112 3.34854C18.3679 3.66363 18.7005 4.0119 19.0087 4.39312L19.0113 4.39598H19.0117C19.3129 4.77127 19.5825 5.17183 19.8207 5.59612C20.0597 6.02261 20.2642 6.46668 20.4331 6.92679L20.434 6.92657C20.6087 7.39986 20.7395 7.88502 20.8258 8.3816C20.9125 8.8806 20.9554 9.39212 20.9554 9.91617C20.9554 10.952 20.9554 11.5107 20.9558 11.5786C20.958 12.1097 20.9608 12.6287 20.9646 13.1354V13.1407C20.9663 13.5983 20.9956 14.0589 21.0509 14.5203C21.1056 14.9767 21.1857 15.4175 21.2891 15.8418L21.2899 15.8415C21.3938 16.2599 21.5341 16.6622 21.7101 17.0485C21.8908 17.4462 22.1106 17.8351 22.3693 18.2155L22.3706 18.2146C22.6259 18.5875 22.9455 18.9557 23.3293 19.3191C23.7256 19.6947 24.1859 20.0625 24.7095 20.4228C25.0098 20.6298 25.0904 21.0482 24.8889 21.3573C24.7629 21.5509 24.5559 21.6557 24.3448 21.6559V21.6581H18.423H12.5012H6.57891H0.65708C0.294148 21.6581 0 21.3556 0 20.9825C0 20.737 0.127101 20.5224 0.317218 20.4039C0.849333 20.0335 1.30626 19.667 1.68777 19.3035C2.06737 18.9419 2.38522 18.5719 2.64092 18.1928C2.64861 18.1816 2.6563 18.1709 2.66442 18.1603C2.91157 17.7881 3.12305 17.4088 3.29822 17.0237C3.47637 16.6319 3.61928 16.2278 3.7263 15.8114C3.72844 15.8026 3.73079 15.7941 3.73335 15.7855C3.83482 15.3812 3.91214 14.9552 3.96576 14.5085C4.01959 14.0587 4.04651 13.5942 4.04651 13.116V9.91617C4.04651 9.40201 4.09137 8.88983 4.18087 8.38094C4.27038 7.87271 4.40218 7.3847 4.57585 6.91866C4.74866 6.45262 4.95587 6.00592 5.1964 5.57921C5.43543 5.15535 5.70843 4.75237 6.01412 4.37159L6.01775 4.36719L6.01689 4.36631C6.32194 3.99124 6.65667 3.64298 7.0211 3.32283C7.38061 3.00709 7.76875 2.72012 8.1853 2.46282C8.60719 2.20377 9.04296 1.98624 9.49433 1.81002C9.80813 1.68741 10.1307 1.58458 10.4618 1.5013C10.5748 1.09459 10.7688 0.765436 11.0433 0.51341C11.4222 0.165363 11.9219 -0.00536474 12.5418 0.000128421C13.1559 0.00562159 13.6513 0.180524 14.0268 0.525495C14.3022 0.7784 14.497 1.10623 14.6108 1.50921ZM15.0799 3.08289C14.7166 2.93568 14.346 2.81966 13.9685 2.73638C13.6778 2.69771 13.4383 2.46107 13.4011 2.14818C13.3657 1.85352 13.2834 1.64698 13.1546 1.52877C13.0254 1.40989 12.8175 1.34925 12.5315 1.34661C12.2474 1.34398 12.0421 1.40067 11.9159 1.51668C11.7877 1.63445 11.7065 1.84298 11.6723 2.1429H11.6717C11.6401 2.42921 11.431 2.67332 11.1411 2.72891C10.732 2.80867 10.3375 2.92293 9.95617 3.07191C9.57551 3.22044 9.20958 3.40303 8.85755 3.61902C8.507 3.83546 8.17889 4.07847 7.87299 4.34698C7.56752 4.61527 7.28406 4.9108 7.02281 5.23204L7.02195 5.23138C6.7669 5.54976 6.53619 5.89122 6.33112 6.25508C6.12925 6.61302 5.95281 6.99468 5.80285 7.3992C5.65289 7.8013 5.54181 8.20823 5.46961 8.61868C5.39698 9.03045 5.36088 9.46331 5.36088 9.91639V13.1165C5.36088 13.6465 5.33033 14.1655 5.26967 14.6728C5.21114 15.1615 5.12163 15.6458 5.00137 16.1241C4.99923 16.1344 4.99688 16.145 4.99432 16.1553C4.86893 16.6429 4.69868 17.1225 4.48399 17.5943C4.27679 18.0498 4.03006 18.4928 3.74467 18.9228C3.73655 18.9368 3.72801 18.9507 3.71882 18.9643C3.41805 19.4095 3.03696 19.8518 2.57556 20.2912L2.55889 20.3068H6.57891H12.5012H18.423H22.4362C21.9853 19.8792 21.6059 19.4407 21.2981 18.9909L21.2989 18.99L21.2981 18.9882C20.9956 18.5435 20.7373 18.0869 20.5246 17.6191C20.3071 17.1419 20.1381 16.6602 20.0172 16.1744L20.0176 16.1742L20.0172 16.1718C19.8987 15.6879 19.8081 15.1916 19.7472 14.684C19.6893 14.1986 19.6583 13.6865 19.6558 13.1477V13.1461C19.6519 12.6456 19.6492 12.1231 19.647 11.5788C19.6432 10.5716 19.6417 10.0219 19.6417 9.91639C19.6417 9.47166 19.6054 9.03924 19.5323 8.61956C19.4597 8.20142 19.3512 7.79713 19.2074 7.40733L19.2083 7.40711L19.2074 7.40469C19.0598 7.00281 18.8861 6.62313 18.6864 6.26695C18.4869 5.91165 18.2583 5.57283 18.0005 5.25137L18.0009 5.25115C17.7452 4.93519 17.4647 4.64251 17.1595 4.37291C16.8636 4.11187 16.5511 3.8772 16.2211 3.66824C16.2065 3.66055 16.1918 3.65242 16.1777 3.64341C15.8216 3.42281 15.4559 3.23538 15.0799 3.08289Z" fill="black"/>
</g>
<defs>
<clipPath id="clip0_5_93">
<rect width="25" height="27" fill="white"/>
</clipPath>
</defs>
</svg>
