<svg width="21" height="21" viewBox="0 0 21 21" fill="none" xmlns="http://www.w3.org/2000/svg">
<g clip-path="url(#clip0_5_77)">
<path fill-rule="evenodd" clip-rule="evenodd" d="M9.67376 8.42012V4.78408L14.0514 8.2424L11.6524 10.4397L14.0514 12.6986L9.63615 16.1774L9.67716 12.3397L7.81816 14.1578L6.97749 13.3581L9.67376 10.8395V9.94075L6.99462 7.44268L7.83523 6.58494L9.67376 8.42346V8.42012ZM10.5 0C13.3994 0 16.0245 1.17533 17.9245 3.07546C19.8247 4.97554 21 7.60062 21 10.5C21 13.3994 19.8247 16.0245 17.9245 17.9245C16.0245 19.8247 13.3994 21 10.5 21C7.60056 21 4.97554 19.8247 3.07546 17.9245C1.17533 16.0245 0 13.3994 0 10.5C0 7.60056 1.17533 4.97554 3.07546 3.07546C4.97554 1.17533 7.60062 0 10.5 0ZM16.8579 4.14212C15.2309 2.51508 12.983 1.50859 10.5 1.50859C8.01705 1.50859 5.76915 2.51502 4.14212 4.14212C2.51508 5.76915 1.50859 8.01705 1.50859 10.5C1.50859 12.983 2.51502 15.2309 4.14212 16.8579C5.76915 18.4849 8.01705 19.4914 10.5 19.4914C12.983 19.4914 15.2309 18.485 16.8579 16.8579C18.4849 15.2309 19.4914 12.983 19.4914 10.5C19.4914 8.01705 18.485 5.76915 16.8579 4.14212ZM10.8493 7.21727L12.0898 8.25954L10.8493 9.25739V7.21727ZM10.8493 11.6734L12.0898 12.7157L10.8493 13.7136V11.6734Z" fill="#039A30"/>
</g>
<defs>
<clipPath id="clip0_5_77">
<rect width="21" height="21" fill="white"/>
</clipPath>
</defs>
</svg>
