<svg width="48" height="53" viewBox="0 0 48 53" fill="none" xmlns="http://www.w3.org/2000/svg">
<g clip-path="url(#clip0_26_288)">
<path fill-rule="evenodd" clip-rule="evenodd" d="M38.932 19.6421C40.4034 19.2108 41.7138 18.5164 42.7803 17.6365C44.5304 16.1916 45.61 14.2291 45.61 12.0855C45.61 10.8864 45.2748 9.74772 44.674 8.72982H44.6784C44.4085 8.27262 44.0863 7.837 43.7163 7.43156C43.5248 10.1057 42.8631 12.6418 41.827 14.9494C41.0608 16.6531 40.0813 18.2317 38.932 19.6421ZM24.5529 39.3403L25.7849 42.7606L29.4504 42.8641L26.5467 45.0811L27.5784 48.5661L24.5529 46.513L21.5273 48.5661L22.559 45.0811L19.6554 42.8641L23.3209 42.7606L24.5529 39.3403ZM8.98095 34.9106H40.1291V53H8.98095V34.9106ZM26.4379 25.9091V28.7342H26.6512V30.7096H21.2443V28.7342H21.4576V25.8918C18.1622 25.3872 15.1496 23.9121 12.69 21.7555L12.3983 22.5535C9.00707 22.4974 5.93796 21.3372 3.7134 19.4998C1.41919 17.6106 0 14.9882 0 12.0811C0 10.4421 0.457101 8.8894 1.27553 7.49626L1.27118 7.49194C2.09831 6.08154 3.29984 4.84798 4.76691 3.88184L6.09469 3.00627H4.55795V0H43.133V3.00627H41.9053L43.2331 3.88184C44.6958 4.84798 45.893 6.08154 46.7245 7.49194H46.7288C47.5429 8.88078 48 10.4335 48 12.0811C48 14.9882 46.5808 17.6063 44.2822 19.5041C42.0577 21.3415 38.9886 22.5017 35.5973 22.5578L35.3056 21.7555C32.8199 23.938 29.7725 25.4217 26.4379 25.9091ZM18.3537 32.6894H29.5462V34.6648H18.3537V32.6894ZM20.0602 30.7096H27.8397V32.6851H20.0602V30.7096ZM5.21966 17.6365C6.28623 18.5207 7.60094 19.2108 9.07237 19.6464C7.92309 18.236 6.94359 16.6574 6.17305 14.9451C5.13695 12.6418 4.47524 10.1014 4.28369 7.42725C3.92237 7.82406 3.60022 8.264 3.32596 8.7255H3.3216C2.72519 9.7391 2.38999 10.8821 2.38999 12.0811C2.38999 14.2291 3.46962 16.1873 5.21966 17.6365Z" fill="#039A30"/>
</g>
<defs>
<clipPath id="clip0_26_288">
<rect width="48" height="53" fill="white"/>
</clipPath>
</defs>
</svg>
