<svg width="29" height="28" viewBox="0 0 29 28" fill="none" xmlns="http://www.w3.org/2000/svg">
<path d="M23.1226 4.95103C23.0448 4.87801 22.9645 4.82536 22.8819 4.79261C22.8045 4.76186 22.7141 4.74681 22.6105 4.74681C22.5064 4.74681 22.4142 4.7623 22.3358 4.7935C22.2546 4.82558 22.1763 4.87735 22.1012 4.94881L22.0963 4.95346L20.6314 6.32257C20.4119 6.52723 20.0728 6.55002 19.8267 6.39182C19.6544 6.28739 19.4708 6.18672 19.2782 6.08915C19.074 5.9856 18.8739 5.89268 18.6785 5.8086C18.4748 5.72143 18.2669 5.63934 18.0552 5.56235C17.8634 5.49243 17.6495 5.42119 17.4164 5.34906C17.1495 5.26653 16.9798 5.03378 16.9798 4.78354V2.67766C16.9798 2.57677 16.9628 2.4876 16.929 2.40994C16.8953 2.33317 16.8438 2.2617 16.7728 2.19533C16.7037 2.1305 16.6286 2.08249 16.5465 2.05129C16.4639 2.01965 16.3685 2.00394 16.2607 2.00394H13.4417C13.3418 2.00394 13.2533 2.01899 13.1759 2.04908C13.0938 2.08072 13.0133 2.13249 12.9338 2.20462L12.9328 2.20528C12.863 2.27077 12.8115 2.34047 12.7785 2.41459C12.7445 2.49048 12.7275 2.57809 12.7275 2.67766V4.60565C12.7275 4.89881 12.5017 5.14241 12.2043 5.19219C11.9785 5.24264 11.7698 5.29485 11.5798 5.3495C11.3717 5.40924 11.1624 5.47717 10.9526 5.55394C10.9422 5.5577 10.9318 5.56124 10.9214 5.56434C10.738 5.63116 10.5447 5.7086 10.3418 5.79643C10.1355 5.8856 9.94342 5.97609 9.76547 6.06702C9.5146 6.19513 9.21205 6.14756 9.01853 5.96901L9.01829 5.96923L7.39603 4.47025C7.39107 4.4656 7.38611 4.46095 7.38116 4.45631C7.31201 4.38772 7.23932 4.33772 7.16309 4.30652C7.08993 4.27665 7.00332 4.26138 6.90231 4.26138C6.80201 4.26138 6.71233 4.27731 6.63351 4.30895C6.54713 4.34347 6.46453 4.39745 6.38523 4.47025L6.38476 4.47069L4.41675 6.31992L4.41557 6.32124L4.41675 6.32235C4.33604 6.39802 4.27893 6.47324 4.24518 6.54803C4.21238 6.6206 4.19609 6.70534 4.19609 6.80225C4.19609 6.90004 4.21261 6.98633 4.24589 7.06023C4.28011 7.13612 4.3351 7.20957 4.41156 7.27993L4.41652 7.28458L5.87689 8.65811C6.09519 8.86388 6.1195 9.18182 5.95076 9.41258C5.83937 9.57432 5.73198 9.74623 5.62814 9.92677C5.5177 10.1184 5.41858 10.3056 5.3289 10.4892C5.23568 10.6799 5.14812 10.8751 5.06575 11.0735C4.99118 11.2532 4.91542 11.4536 4.83849 11.6722C4.75046 11.9227 4.50195 12.0816 4.23527 12.0816L1.98972 12.0818C1.88163 12.0818 1.78676 12.0975 1.70392 12.1289C1.62227 12.1603 1.54675 12.2081 1.47784 12.2729L1.47524 12.2756C1.40609 12.3404 1.35488 12.411 1.32137 12.4875C1.28762 12.5652 1.2711 12.6544 1.2711 12.7555V15.3986C1.2711 15.4919 1.28691 15.5751 1.31901 15.6475C1.35299 15.7245 1.40822 15.7999 1.48515 15.8747L1.48586 15.8751C1.55548 15.9406 1.63006 15.9891 1.70888 16.0198C1.79007 16.0517 1.88352 16.0676 1.98972 16.0676H4.046C4.3587 16.0676 4.61853 16.2794 4.67163 16.5584C4.72544 16.7699 4.78114 16.9657 4.83943 17.1438C4.90339 17.339 4.9756 17.535 5.05749 17.7317C5.13443 17.9191 5.22175 18.1138 5.31898 18.3156C5.41834 18.522 5.51557 18.7101 5.60997 18.8802C5.74142 19.1161 5.68691 19.397 5.49528 19.5756L5.49575 19.576L3.89661 21.0708L3.88646 21.0801C3.8133 21.1452 3.75996 21.2133 3.72692 21.2845C3.69483 21.3531 3.67878 21.4346 3.67878 21.5293C3.67878 21.6233 3.69577 21.7071 3.72928 21.781C3.7661 21.862 3.82368 21.9397 3.90156 22.0138L5.86249 23.8734C5.93919 23.94 6.0192 23.9887 6.10298 24.0194C6.18699 24.0506 6.28234 24.0659 6.38901 24.0659C6.49663 24.0659 6.59362 24.0502 6.67906 24.0186C6.76118 23.9883 6.83836 23.9418 6.90986 23.879L8.36339 22.4946C8.58264 22.2857 8.92602 22.2607 9.17476 22.4218C9.34681 22.5258 9.52971 22.626 9.72181 22.7231C9.92619 22.8269 10.1258 22.9198 10.3217 23.0037C10.5252 23.0913 10.7333 23.1734 10.945 23.2504C11.1366 23.3201 11.3502 23.3913 11.5836 23.4634C11.8508 23.546 12.0202 23.7789 12.0202 24.029L12.0205 26.1348C12.0205 26.2357 12.0372 26.3249 12.071 26.4026C12.1045 26.4793 12.1555 26.5499 12.2246 26.6147L12.2258 26.6161L12.227 26.6147C12.3655 26.7446 12.5354 26.8086 12.7388 26.8086H15.5576C15.6577 26.8086 15.7462 26.7937 15.8236 26.7636C15.9057 26.7318 15.9862 26.68 16.0655 26.6079L16.0665 26.6072C16.1361 26.5417 16.1878 26.472 16.2208 26.3981C16.255 26.322 16.272 26.2346 16.272 26.1351V24.2068C16.272 23.9139 16.4974 23.6701 16.7952 23.6205C17.0206 23.5701 17.2295 23.5176 17.4197 23.4632C17.6276 23.4033 17.8369 23.3356 18.0465 23.259C18.2466 23.1867 18.4545 23.1048 18.6702 23.0136C18.8897 22.9205 19.0906 22.8296 19.2713 22.7411C19.5234 22.6178 19.8231 22.6691 20.0136 22.8486L20.014 22.8481L21.6085 24.3471L21.6181 24.3566C21.6882 24.4257 21.7609 24.4754 21.8367 24.5064C21.9108 24.5363 22.0002 24.5516 22.1069 24.5516C22.2114 24.5516 22.3023 24.5356 22.3807 24.504C22.4595 24.4719 22.5329 24.4226 22.5997 24.3564C22.607 24.3489 22.6148 24.3416 22.6233 24.3343L24.5984 22.5041C24.6689 22.4324 24.7211 22.3572 24.7536 22.2786C24.7869 22.1999 24.8034 22.1103 24.8034 22.0103C24.8034 21.9094 24.7869 21.8184 24.7532 21.7383C24.7204 21.6613 24.671 21.5892 24.6038 21.5222L23.1274 20.1593C22.9043 19.9537 22.8779 19.632 23.0495 19.3986C23.1606 19.2373 23.2675 19.0658 23.3711 18.8859C23.4818 18.6946 23.581 18.5072 23.6704 18.3235C23.7636 18.1328 23.8512 17.9377 23.9335 17.7392C24.0076 17.5595 24.0839 17.3591 24.1608 17.1403C24.2488 16.8898 24.4973 16.7309 24.7643 16.7309L27.01 16.7307C27.1179 16.7307 27.2132 16.715 27.2958 16.6834C27.3775 16.652 27.453 16.6042 27.5222 16.5396L27.5245 16.5371C27.5937 16.4721 27.6454 16.4015 27.6784 16.3247C27.7121 16.2473 27.7287 16.1581 27.7287 16.057V13.4139C27.7287 13.3206 27.7131 13.2374 27.6808 13.1648C27.647 13.088 27.5918 13.0124 27.5148 12.9376L27.5139 12.9369C27.4443 12.8714 27.3697 12.8232 27.2909 12.7922C27.2102 12.7604 27.1167 12.7444 27.0103 12.7444H24.954C24.6373 12.7444 24.3751 12.5278 24.3267 12.2439C24.2769 12.0574 24.2208 11.8683 24.157 11.6762C24.0957 11.4919 24.0239 11.297 23.9399 11.091C23.9357 11.081 23.9321 11.0709 23.9288 11.0607C23.849 10.8649 23.7674 10.6808 23.6836 10.5084C23.5928 10.3219 23.4965 10.1416 23.3945 9.96726C23.2581 9.73207 23.3088 9.44843 23.4991 9.267V9.26678L25.098 7.74589C25.1029 7.74124 25.1076 7.7366 25.1128 7.73195C25.1862 7.66712 25.2396 7.59898 25.2728 7.52773C25.3047 7.45914 25.3212 7.37794 25.3212 7.28325C25.3212 7.18922 25.3042 7.10514 25.2705 7.03124C25.2337 6.95026 25.1761 6.87283 25.0982 6.79848L25.0977 6.79804L23.125 4.95302L23.1226 4.95103ZM23.3733 3.69852C23.6097 3.79211 23.8245 3.92906 24.018 4.11049L24.0185 4.11071L25.9964 5.96082L26.0014 5.96547C26.1918 6.1469 26.3374 6.34669 26.437 6.56573C26.5399 6.79163 26.5919 7.0308 26.5919 7.28325C26.5919 7.53946 26.5387 7.77885 26.4342 8.00254C26.3322 8.22202 26.1833 8.41717 25.9908 8.58952L24.7241 9.79424C24.7614 9.86703 24.7987 9.94071 24.8348 10.0153C24.9363 10.2228 25.0293 10.4308 25.1138 10.639C25.1185 10.6483 25.1225 10.6578 25.1263 10.6675C25.2105 10.8748 25.2912 11.0952 25.3682 11.3271C25.393 11.4019 25.417 11.4771 25.4402 11.553H27.01C27.2829 11.553 27.5382 11.5999 27.7775 11.6937C28.0126 11.786 28.225 11.922 28.4145 12.101L28.4279 12.1136C28.6146 12.2946 28.7562 12.4942 28.8525 12.7132C28.9511 12.936 29 13.1694 29 13.4139V16.0568C29 16.311 28.9521 16.5491 28.8553 16.7714C28.7586 16.9934 28.6144 17.1949 28.4216 17.3761L28.4206 17.3768L28.4192 17.3783L28.4183 17.3792C28.2247 17.56 28.01 17.6956 27.7726 17.7863C27.5351 17.8768 27.2812 17.922 27.0103 17.922H25.2146C25.1832 18.0012 25.1506 18.083 25.1154 18.1667C25.0255 18.3833 24.9283 18.5999 24.8228 18.8163C24.7135 19.0399 24.6024 19.2512 24.4891 19.4484C24.4518 19.513 24.4136 19.5774 24.3744 19.6417L25.4954 20.6763C25.5037 20.6836 25.5114 20.6909 25.5199 20.6989C25.7038 20.8812 25.8421 21.0836 25.9353 21.3049C26.0288 21.527 26.075 21.7625 26.075 22.0098C26.075 22.2563 26.029 22.4897 25.9362 22.711C25.8435 22.9315 25.7066 23.1331 25.5247 23.3159C25.5183 23.3221 25.5117 23.3285 25.5048 23.3347L23.5153 25.1784C23.3287 25.3618 23.1184 25.5021 22.8824 25.5972C22.644 25.6937 22.3863 25.7426 22.1076 25.7426C21.8348 25.7426 21.5775 25.6926 21.3359 25.595C21.0966 25.4979 20.8851 25.3574 20.7008 25.175L19.4396 23.9896C19.3554 24.0276 19.2728 24.0637 19.1925 24.0978C18.9778 24.1885 18.7481 24.2781 18.5043 24.3664C18.2752 24.45 18.0361 24.5272 17.7881 24.5985C17.7055 24.6221 17.6241 24.6447 17.5438 24.6662V26.1348C17.5438 26.3904 17.4935 26.63 17.3935 26.8541C17.2948 27.0747 17.1502 27.2736 16.9588 27.4515L16.9453 27.4643C16.7523 27.6389 16.5392 27.7714 16.306 27.8622C16.0681 27.9544 15.8191 28.0002 15.5583 28.0002H12.7391C12.1847 28.0002 11.7165 27.821 11.3285 27.4573L11.3297 27.4562C11.1362 27.2745 10.991 27.0725 10.8943 26.8497C10.7975 26.6271 10.7494 26.3893 10.7494 26.1351V24.4516C10.6646 24.4221 10.5776 24.3914 10.4881 24.3586C10.2573 24.2743 10.0263 24.1832 9.79544 24.0841C9.55685 23.9818 9.33147 23.8774 9.12095 23.771C9.05228 23.7362 8.9836 23.7004 8.91493 23.6637L7.81139 24.7146C7.8036 24.7224 7.79558 24.7299 7.78731 24.7374C7.59285 24.9102 7.37691 25.0399 7.14091 25.127C6.90396 25.2147 6.65286 25.2582 6.38901 25.2582C6.12611 25.2582 5.87689 25.2151 5.64112 25.1279C5.40583 25.041 5.19107 24.9126 4.9959 24.7423L4.99613 24.7418C4.98929 24.7361 4.98245 24.7299 4.97607 24.7235L2.99815 22.8477C2.80794 22.6663 2.66232 22.4663 2.56273 22.2472C2.46007 22.0211 2.40792 21.7821 2.40792 21.5299C2.40792 21.2737 2.46102 21.0343 2.56533 20.8104C2.66846 20.5894 2.81808 20.3931 3.01302 20.2197L4.27775 19.0373C4.23716 18.9583 4.19845 18.8809 4.16211 18.805C4.06511 18.6039 3.96977 18.389 3.87584 18.1607C3.78663 17.9458 3.70403 17.7217 3.62804 17.489C3.60279 17.4113 3.57871 17.3352 3.55582 17.26H1.98972C1.7169 17.26 1.46132 17.2128 1.22248 17.119C0.986955 17.0268 0.77479 16.8909 0.585282 16.7117L0.571594 16.6984C0.385153 16.5177 0.243789 16.3179 0.147264 16.0991C0.0488521 15.876 0 15.6426 0 15.3986V12.7555C0 12.5013 0.0481441 12.2632 0.144904 12.0408C0.241665 11.8185 0.385861 11.6169 0.57891 11.4357L0.579146 11.4355L0.580562 11.4344L0.581742 11.4333C0.775262 11.2523 0.990023 11.1169 1.22744 11.0262C1.46462 10.9355 1.71856 10.8905 1.98972 10.8905H3.78545C3.8166 10.8111 3.84964 10.7295 3.88457 10.6456C3.97425 10.4292 4.07172 10.2126 4.17745 9.99603C4.28648 9.77234 4.39764 9.56104 4.51139 9.36391C4.54915 9.29819 4.58833 9.23248 4.62845 9.16677L3.52373 8.12777L3.52325 8.12755C3.32808 7.94767 3.18035 7.74522 3.07957 7.52154C2.97644 7.29321 2.92546 7.05293 2.92546 6.80269C2.92546 6.55289 2.9762 6.31483 3.07863 6.0876C3.18011 5.86259 3.32643 5.66014 3.5183 5.48026L3.51948 5.48137L5.4915 3.62816L5.49646 3.62351C5.68998 3.44518 5.90309 3.30867 6.13673 3.2153C6.37792 3.11906 6.6328 3.06994 6.90208 3.06994C7.17513 3.06994 7.43048 3.11972 7.66931 3.21751C7.90343 3.31332 8.11158 3.45271 8.29542 3.63347L9.5795 4.81982C9.65668 4.78398 9.73361 4.74969 9.81031 4.7165C10.0078 4.6311 10.2259 4.54503 10.4645 4.4583C10.4747 4.45387 10.485 4.44989 10.4954 4.44613C10.7246 4.3625 10.9639 4.28506 11.2122 4.21381C11.2948 4.19014 11.3762 4.16757 11.4564 4.14611V2.67766C11.4564 2.42211 11.5067 2.1825 11.6067 1.95859C11.7052 1.73778 11.8503 1.53887 12.0412 1.36098L12.0547 1.34837C12.2477 1.17358 12.4606 1.04128 12.694 0.950783C12.9319 0.858299 13.1809 0.8125 13.4417 0.8125H16.2604C16.5314 0.8125 16.7855 0.857414 17.0227 0.948128C17.2611 1.03928 17.4768 1.17535 17.6713 1.35744C17.8634 1.53799 18.0083 1.73977 18.1055 1.96301C18.2023 2.18537 18.2502 2.42344 18.2502 2.67744V4.36117C18.3349 4.39059 18.4217 4.42157 18.5114 4.45409C18.742 4.53817 18.9728 4.62955 19.2038 4.72845C19.4427 4.83067 19.6681 4.9351 19.8781 5.04174C19.9487 5.07736 20.0188 5.11387 20.0889 5.15148L21.1969 4.1158L21.1973 4.11558C21.3892 3.9326 21.6054 3.7941 21.8435 3.69962C22.0873 3.60294 22.3431 3.55515 22.61 3.55515C22.877 3.55515 23.1309 3.60249 23.3733 3.69852ZM14.4999 8.63289C14.9202 8.63289 15.3304 8.6705 15.7304 8.74529C16.1236 8.81896 16.5134 8.93202 16.8993 9.08469L16.9035 9.08646L16.9045 9.08469C17.2729 9.23381 17.6222 9.41192 17.9526 9.61945C18.2799 9.825 18.5832 10.0571 18.8612 10.3153L18.8635 10.3177C19.1392 10.5786 19.3867 10.8627 19.606 11.1698C19.8274 11.4795 20.0171 11.807 20.1762 12.1524C20.1835 12.1687 20.1901 12.1851 20.196 12.2017C20.3484 12.5488 20.4629 12.8991 20.538 13.2529C20.6182 13.6281 20.6578 14.0124 20.6578 14.4062C20.6578 14.8003 20.6182 15.1848 20.538 15.5599C20.4596 15.9287 20.3388 16.2938 20.1762 16.6557L20.1743 16.6597L20.1762 16.6606C20.0171 17.006 19.8271 17.3332 19.606 17.643C19.3865 17.9501 19.1389 18.2341 18.8635 18.495L18.8612 18.4974C18.5827 18.7559 18.2799 18.9879 17.9521 19.1935C17.6222 19.401 17.2727 19.5789 16.9045 19.728C16.887 19.7349 16.8696 19.7413 16.8514 19.7466C16.4813 19.8898 16.1075 19.9969 15.7304 20.0674C15.3304 20.1424 14.92 20.1798 14.4999 20.1798C14.0796 20.1798 13.6696 20.1424 13.2696 20.0674C12.8762 19.9938 12.4866 19.8805 12.1005 19.728L12.0962 19.7263L12.0955 19.728C11.7271 19.5789 11.3776 19.4008 11.0474 19.1935C10.7199 18.9879 10.4168 18.7559 10.1388 18.4974L10.1365 18.495C9.86082 18.2339 9.61302 17.9501 9.39401 17.6427C9.17287 17.3332 8.98289 17.0055 8.82407 16.6606C8.81651 16.6442 8.80991 16.6278 8.80401 16.611C8.65131 16.2639 8.53709 15.9136 8.4618 15.5599C8.38204 15.1848 8.34192 14.8003 8.34192 14.4062C8.34192 14.0122 8.3818 13.6279 8.4618 13.2529C8.54039 12.884 8.66123 12.5187 8.82407 12.157L8.82572 12.153L8.82407 12.1524C8.98289 11.807 9.17311 11.4795 9.39401 11.17C9.61325 10.8627 9.86082 10.5788 10.1365 10.3177L10.1391 10.3155C10.4171 10.0573 10.7201 9.82522 11.0474 9.61967C11.3778 9.41236 11.7273 9.23403 12.0957 9.08491C12.1132 9.07783 12.1307 9.07163 12.1486 9.06632C12.5189 8.92317 12.8922 8.81631 13.2696 8.74573C13.6696 8.6705 14.0796 8.63289 14.4999 8.63289ZM15.4821 9.9135C15.1649 9.85398 14.8378 9.82433 14.4999 9.82433C14.1622 9.82433 13.8351 9.85398 13.5176 9.9135C13.2094 9.97124 12.9151 10.054 12.6348 10.1617C12.6225 10.1675 12.61 10.1732 12.597 10.1783C12.2907 10.3025 12.0089 10.4449 11.7521 10.606C11.4935 10.7682 11.2542 10.9518 11.0337 11.1563C10.8154 11.3631 10.6196 11.5879 10.4463 11.8307C10.2745 12.0712 10.1225 12.3351 9.99038 12.6223L9.98873 12.6216C9.86577 12.8953 9.77232 13.1834 9.70765 13.4856C9.6444 13.783 9.61278 14.0896 9.61278 14.4062C9.61278 14.7229 9.6444 15.0295 9.70765 15.3271C9.76925 15.6161 9.85775 15.892 9.97268 16.1548C9.97882 16.1665 9.98495 16.178 9.99038 16.1902C10.1225 16.4774 10.2745 16.7411 10.4461 16.9816C10.6193 17.2243 10.8152 17.4491 11.0337 17.656C11.2542 17.8607 11.4937 18.0441 11.7524 18.2063C12.0089 18.3673 12.2904 18.5098 12.597 18.6339L12.5963 18.6355C12.8885 18.7508 13.1955 18.8386 13.5179 18.8988C13.8351 18.9583 14.1624 18.9877 14.5001 18.9877C14.8378 18.9877 15.1652 18.9581 15.4824 18.8988C15.7908 18.841 16.0849 18.7583 16.3655 18.6505C16.3775 18.6448 16.3902 18.639 16.4032 18.6339C16.7093 18.5098 16.9909 18.3673 17.2476 18.2063C17.5063 18.0441 17.7458 17.8604 17.9663 17.656C18.1848 17.4491 18.3807 17.2246 18.5539 16.9818C18.7255 16.7413 18.8775 16.4774 19.0094 16.1902L19.0113 16.1909C19.1342 15.9172 19.2279 15.6291 19.2923 15.3271C19.3556 15.0295 19.3872 14.7229 19.3872 14.4062C19.3872 14.0896 19.3554 13.783 19.2923 13.4856C19.2305 13.1964 19.1425 12.9208 19.0273 12.6577C19.0209 12.6462 19.0153 12.6345 19.0094 12.6223C18.8775 12.3351 18.7255 12.0712 18.5534 11.8307C18.3807 11.5879 18.1846 11.3631 17.9663 11.1565C17.7458 10.9521 17.5063 10.7684 17.2476 10.6062C16.9909 10.4452 16.7093 10.3027 16.4032 10.1786L16.4037 10.177C16.1118 10.0617 15.8047 9.9739 15.4821 9.9135Z" fill="#5068E2"/>
</svg>
