<svg width="32" height="30" viewBox="0 0 32 30" fill="none" xmlns="http://www.w3.org/2000/svg">
<g clip-path="url(#clip0_5_104)">
<path d="M23.1226 6.95103C23.0448 6.87801 22.9645 6.82536 22.8819 6.79261C22.8045 6.76186 22.7141 6.74681 22.6105 6.74681C22.5064 6.74681 22.4142 6.7623 22.3358 6.7935C22.2546 6.82558 22.1763 6.87735 22.1012 6.94881L22.0963 6.95346L20.6314 8.32257C20.4119 8.52723 20.0728 8.55002 19.8267 8.39182C19.6544 8.28739 19.4708 8.18672 19.2782 8.08915C19.074 7.9856 18.8739 7.89268 18.6785 7.8086C18.4748 7.72143 18.2669 7.63934 18.0552 7.56235C17.8634 7.49243 17.6495 7.42119 17.4164 7.34906C17.1495 7.26653 16.9798 7.03378 16.9798 6.78354V4.67766C16.9798 4.57677 16.9628 4.4876 16.929 4.40994C16.8953 4.33317 16.8438 4.2617 16.7728 4.19533C16.7037 4.1305 16.6286 4.08249 16.5465 4.05129C16.4639 4.01965 16.3685 4.00394 16.2607 4.00394H13.4417C13.3418 4.00394 13.2533 4.01899 13.1759 4.04908C13.0938 4.08072 13.0133 4.13249 12.9338 4.20462L12.9328 4.20528C12.863 4.27077 12.8115 4.34047 12.7785 4.41459C12.7445 4.49048 12.7275 4.57809 12.7275 4.67766V6.60565C12.7275 6.89881 12.5017 7.14241 12.2043 7.19219C11.9785 7.24264 11.7698 7.29485 11.5798 7.3495C11.3717 7.40924 11.1624 7.47717 10.9526 7.55394C10.9422 7.5577 10.9318 7.56124 10.9214 7.56434C10.738 7.63116 10.5447 7.7086 10.3418 7.79643C10.1355 7.8856 9.94342 7.97609 9.76547 8.06702C9.5146 8.19513 9.21205 8.14756 9.01853 7.96901L9.01829 7.96923L7.39603 6.47025C7.39107 6.4656 7.38611 6.46095 7.38116 6.45631C7.31201 6.38772 7.23932 6.33772 7.16309 6.30652C7.08993 6.27665 7.00332 6.26138 6.90231 6.26138C6.80201 6.26138 6.71233 6.27731 6.63351 6.30895C6.54713 6.34347 6.46453 6.39745 6.38523 6.47025L6.38476 6.47069L4.41675 8.31992L4.41557 8.32124L4.41675 8.32235C4.33604 8.39802 4.27893 8.47324 4.24518 8.54803C4.21238 8.6206 4.19609 8.70534 4.19609 8.80225C4.19609 8.90004 4.21261 8.98633 4.24589 9.06023C4.28011 9.13612 4.3351 9.20957 4.41156 9.27993L4.41652 9.28458L5.87689 10.6581C6.09519 10.8639 6.1195 11.1818 5.95076 11.4126C5.83937 11.5743 5.73198 11.7462 5.62814 11.9268C5.5177 12.1184 5.41858 12.3056 5.3289 12.4892C5.23568 12.6799 5.14812 12.8751 5.06575 13.0735C4.99118 13.2532 4.91542 13.4536 4.83849 13.6722C4.75046 13.9227 4.50195 14.0816 4.23527 14.0816L1.98972 14.0818C1.88163 14.0818 1.78676 14.0975 1.70392 14.1289C1.62227 14.1603 1.54675 14.2081 1.47784 14.2729L1.47524 14.2756C1.40609 14.3404 1.35488 14.411 1.32137 14.4875C1.28762 14.5652 1.2711 14.6544 1.2711 14.7555V17.3986C1.2711 17.4919 1.28691 17.5751 1.31901 17.6475C1.35299 17.7245 1.40822 17.7999 1.48515 17.8747L1.48586 17.8751C1.55548 17.9406 1.63006 17.9891 1.70888 18.0198C1.79007 18.0517 1.88352 18.0676 1.98972 18.0676H4.046C4.3587 18.0676 4.61853 18.2794 4.67163 18.5584C4.72544 18.7699 4.78114 18.9657 4.83943 19.1438C4.90339 19.339 4.9756 19.535 5.05749 19.7317C5.13443 19.9191 5.22175 20.1138 5.31898 20.3156C5.41834 20.522 5.51557 20.7101 5.60997 20.8802C5.74142 21.1161 5.68691 21.397 5.49528 21.5756L5.49575 21.576L3.89661 23.0708L3.88646 23.0801C3.8133 23.1452 3.75996 23.2133 3.72692 23.2845C3.69483 23.3531 3.67878 23.4346 3.67878 23.5293C3.67878 23.6233 3.69577 23.7071 3.72928 23.781C3.7661 23.862 3.82368 23.9397 3.90156 24.0138L5.86249 25.8734C5.93919 25.94 6.0192 25.9887 6.10298 26.0194C6.18699 26.0506 6.28234 26.0659 6.38901 26.0659C6.49663 26.0659 6.59362 26.0502 6.67906 26.0186C6.76118 25.9883 6.83836 25.9418 6.90986 25.879L8.36339 24.4946C8.58264 24.2857 8.92602 24.2607 9.17476 24.4218C9.34681 24.5258 9.52971 24.626 9.72181 24.7231C9.92619 24.8269 10.1258 24.9198 10.3217 25.0037C10.5252 25.0913 10.7333 25.1734 10.945 25.2504C11.1366 25.3201 11.3502 25.3913 11.5836 25.4634C11.8508 25.546 12.0202 25.7789 12.0202 26.029L12.0205 28.1348C12.0205 28.2357 12.0372 28.3249 12.071 28.4026C12.1045 28.4793 12.1555 28.5499 12.2246 28.6147L12.2258 28.6161L12.227 28.6147C12.3655 28.7446 12.5354 28.8086 12.7388 28.8086H15.5576C15.6577 28.8086 15.7462 28.7937 15.8236 28.7636C15.9057 28.7318 15.9862 28.68 16.0655 28.6079L16.0665 28.6072C16.1361 28.5417 16.1878 28.472 16.2208 28.3981C16.255 28.322 16.272 28.2346 16.272 28.1351V26.2068C16.272 25.9139 16.4974 25.6701 16.7952 25.6205C17.0206 25.5701 17.2295 25.5176 17.4197 25.4632C17.6276 25.4033 17.8369 25.3356 18.0465 25.259C18.2466 25.1867 18.4545 25.1048 18.6702 25.0136C18.8897 24.9205 19.0906 24.8296 19.2713 24.7411C19.5234 24.6178 19.8231 24.6691 20.0136 24.8486L20.014 24.8481L21.6085 26.3471L21.6181 26.3566C21.6882 26.4257 21.7609 26.4754 21.8367 26.5064C21.9108 26.5363 22.0002 26.5516 22.1069 26.5516C22.2114 26.5516 22.3023 26.5356 22.3807 26.504C22.4595 26.4719 22.5329 26.4226 22.5997 26.3564C22.607 26.3489 22.6148 26.3416 22.6233 26.3343L24.5984 24.5041C24.6689 24.4324 24.7211 24.3572 24.7536 24.2786C24.7869 24.1999 24.8034 24.1103 24.8034 24.0103C24.8034 23.9094 24.7869 23.8184 24.7532 23.7383C24.7204 23.6613 24.671 23.5892 24.6038 23.5222L23.1274 22.1593C22.9043 21.9537 22.8779 21.632 23.0495 21.3986C23.1606 21.2373 23.2675 21.0658 23.3711 20.8859C23.4818 20.6946 23.581 20.5072 23.6704 20.3235C23.7636 20.1328 23.8512 19.9377 23.9335 19.7392C24.0076 19.5595 24.0839 19.3591 24.1608 19.1403C24.2488 18.8898 24.4973 18.7309 24.7643 18.7309L27.01 18.7307C27.1179 18.7307 27.2132 18.715 27.2958 18.6834C27.3775 18.652 27.453 18.6042 27.5222 18.5396L27.5245 18.5371C27.5937 18.4721 27.6454 18.4015 27.6784 18.3247C27.7121 18.2473 27.7287 18.1581 27.7287 18.057V15.4139C27.7287 15.3206 27.7131 15.2374 27.6808 15.1648C27.647 15.088 27.5918 15.0124 27.5148 14.9376L27.5139 14.9369C27.4443 14.8714 27.3697 14.8232 27.2909 14.7922C27.2102 14.7604 27.1167 14.7444 27.0103 14.7444H24.954C24.6373 14.7444 24.3751 14.5278 24.3267 14.2439C24.2769 14.0574 24.2208 13.8683 24.157 13.6762C24.0957 13.4919 24.0239 13.297 23.9399 13.091C23.9357 13.081 23.9321 13.0709 23.9288 13.0607C23.849 12.8649 23.7674 12.6808 23.6836 12.5084C23.5928 12.3219 23.4965 12.1416 23.3945 11.9673C23.2581 11.7321 23.3088 11.4484 23.4991 11.267V11.2668L25.098 9.74589C25.1029 9.74124 25.1076 9.7366 25.1128 9.73195C25.1862 9.66712 25.2396 9.59898 25.2728 9.52773C25.3047 9.45914 25.3212 9.37794 25.3212 9.28325C25.3212 9.18922 25.3042 9.10514 25.2705 9.03124C25.2337 8.95026 25.1761 8.87283 25.0982 8.79848L25.0977 8.79804L23.125 6.95302L23.1226 6.95103ZM23.3733 5.69852C23.6097 5.79211 23.8245 5.92906 24.018 6.11049L24.0185 6.11071L25.9964 7.96082L26.0014 7.96547C26.1918 8.1469 26.3374 8.34669 26.437 8.56573C26.5399 8.79163 26.5919 9.0308 26.5919 9.28325C26.5919 9.53946 26.5387 9.77885 26.4342 10.0025C26.3322 10.222 26.1833 10.4172 25.9908 10.5895L24.7241 11.7942C24.7614 11.867 24.7987 11.9407 24.8348 12.0153C24.9363 12.2228 25.0293 12.4308 25.1138 12.639C25.1185 12.6483 25.1225 12.6578 25.1263 12.6675C25.2105 12.8748 25.2912 13.0952 25.3682 13.3271C25.393 13.4019 25.417 13.4771 25.4402 13.553H27.01C27.2829 13.553 27.5382 13.5999 27.7775 13.6937C28.0126 13.786 28.225 13.922 28.4145 14.101L28.4279 14.1136C28.6146 14.2946 28.7562 14.4942 28.8525 14.7132C28.9511 14.936 29 15.1694 29 15.4139V18.0568C29 18.311 28.9521 18.5491 28.8553 18.7714C28.7586 18.9934 28.6144 19.1949 28.4216 19.3761L28.4206 19.3768L28.4192 19.3783L28.4183 19.3792C28.2247 19.56 28.01 19.6956 27.7726 19.7863C27.5351 19.8768 27.2812 19.922 27.0103 19.922H25.2146C25.1832 20.0012 25.1506 20.083 25.1154 20.1667C25.0255 20.3833 24.9283 20.5999 24.8228 20.8163C24.7135 21.0399 24.6024 21.2512 24.4891 21.4484C24.4518 21.513 24.4136 21.5774 24.3744 21.6417L25.4954 22.6763C25.5037 22.6836 25.5114 22.6909 25.5199 22.6989C25.7038 22.8812 25.8421 23.0836 25.9353 23.3049C26.0288 23.527 26.075 23.7625 26.075 24.0098C26.075 24.2563 26.029 24.4897 25.9362 24.711C25.8435 24.9315 25.7066 25.1331 25.5247 25.3159C25.5183 25.3221 25.5117 25.3285 25.5048 25.3347L23.5153 27.1784C23.3287 27.3618 23.1184 27.5021 22.8824 27.5972C22.644 27.6937 22.3863 27.7426 22.1076 27.7426C21.8348 27.7426 21.5775 27.6926 21.3359 27.595C21.0966 27.4979 20.8851 27.3574 20.7008 27.175L19.4396 25.9896C19.3554 26.0276 19.2728 26.0637 19.1925 26.0978C18.9778 26.1885 18.7481 26.2781 18.5043 26.3664C18.2752 26.45 18.0361 26.5272 17.7881 26.5985C17.7055 26.6221 17.6241 26.6447 17.5438 26.6662V28.1348C17.5438 28.3904 17.4935 28.63 17.3935 28.8541C17.2948 29.0747 17.1502 29.2736 16.9588 29.4515L16.9453 29.4643C16.7523 29.6389 16.5392 29.7714 16.306 29.8622C16.0681 29.9544 15.8191 30.0002 15.5583 30.0002H12.7391C12.1847 30.0002 11.7165 29.821 11.3285 29.4573L11.3297 29.4562C11.1362 29.2745 10.991 29.0725 10.8943 28.8497C10.7975 28.6271 10.7494 28.3893 10.7494 28.1351V26.4516C10.6646 26.4221 10.5776 26.3914 10.4881 26.3586C10.2573 26.2743 10.0263 26.1832 9.79544 26.0841C9.55685 25.9818 9.33147 25.8774 9.12095 25.771C9.05228 25.7362 8.9836 25.7004 8.91493 25.6637L7.81139 26.7146C7.8036 26.7224 7.79558 26.7299 7.78731 26.7374C7.59285 26.9102 7.37691 27.0399 7.14091 27.127C6.90396 27.2147 6.65286 27.2582 6.38901 27.2582C6.12611 27.2582 5.87689 27.2151 5.64112 27.1279C5.40583 27.041 5.19107 26.9126 4.9959 26.7423L4.99613 26.7418C4.98929 26.7361 4.98245 26.7299 4.97607 26.7235L2.99815 24.8477C2.80794 24.6663 2.66232 24.4663 2.56273 24.2472C2.46007 24.0211 2.40792 23.7821 2.40792 23.5299C2.40792 23.2737 2.46102 23.0343 2.56533 22.8104C2.66846 22.5894 2.81808 22.3931 3.01302 22.2197L4.27775 21.0373C4.23716 20.9583 4.19845 20.8809 4.16211 20.805C4.06511 20.6039 3.96977 20.389 3.87584 20.1607C3.78663 19.9458 3.70403 19.7217 3.62804 19.489C3.60279 19.4113 3.57871 19.3352 3.55582 19.26H1.98972C1.7169 19.26 1.46132 19.2128 1.22248 19.119C0.986955 19.0268 0.77479 18.8909 0.585282 18.7117L0.571594 18.6984C0.385153 18.5177 0.243789 18.3179 0.147264 18.0991C0.0488521 17.876 0 17.6426 0 17.3986V14.7555C0 14.5013 0.0481441 14.2632 0.144904 14.0408C0.241665 13.8185 0.385861 13.6169 0.57891 13.4357L0.579146 13.4355L0.580562 13.4344L0.581742 13.4333C0.775262 13.2523 0.990023 13.1169 1.22744 13.0262C1.46462 12.9355 1.71856 12.8905 1.98972 12.8905H3.78545C3.8166 12.8111 3.84964 12.7295 3.88457 12.6456C3.97425 12.4292 4.07172 12.2126 4.17745 11.996C4.28648 11.7723 4.39764 11.561 4.51139 11.3639C4.54915 11.2982 4.58833 11.2325 4.62845 11.1668L3.52373 10.1278L3.52325 10.1275C3.32808 9.94767 3.18035 9.74522 3.07957 9.52154C2.97644 9.29321 2.92546 9.05293 2.92546 8.80269C2.92546 8.55289 2.9762 8.31483 3.07863 8.0876C3.18011 7.86259 3.32643 7.66014 3.5183 7.48026L3.51948 7.48137L5.4915 5.62816L5.49646 5.62351C5.68998 5.44518 5.90309 5.30867 6.13673 5.2153C6.37792 5.11906 6.6328 5.06994 6.90208 5.06994C7.17513 5.06994 7.43048 5.11972 7.66931 5.21751C7.90343 5.31332 8.11158 5.45271 8.29542 5.63347L9.5795 6.81982C9.65668 6.78398 9.73361 6.74969 9.81031 6.7165C10.0078 6.6311 10.2259 6.54503 10.4645 6.4583C10.4747 6.45387 10.485 6.44989 10.4954 6.44613C10.7246 6.3625 10.9639 6.28506 11.2122 6.21381C11.2948 6.19014 11.3762 6.16757 11.4564 6.14611V4.67766C11.4564 4.42211 11.5067 4.1825 11.6067 3.95859C11.7052 3.73778 11.8503 3.53887 12.0412 3.36098L12.0547 3.34837C12.2477 3.17358 12.4606 3.04128 12.694 2.95078C12.9319 2.8583 13.1809 2.8125 13.4417 2.8125H16.2604C16.5314 2.8125 16.7855 2.85741 17.0227 2.94813C17.2611 3.03928 17.4768 3.17535 17.6713 3.35744C17.8634 3.53799 18.0083 3.73977 18.1055 3.96301C18.2023 4.18537 18.2502 4.42344 18.2502 4.67744V6.36117C18.3349 6.39059 18.4217 6.42157 18.5114 6.45409C18.742 6.53817 18.9728 6.62955 19.2038 6.72845C19.4427 6.83067 19.6681 6.9351 19.8781 7.04174C19.9487 7.07736 20.0188 7.11387 20.0889 7.15148L21.1969 6.1158L21.1973 6.11558C21.3892 5.9326 21.6054 5.7941 21.8435 5.69962C22.0873 5.60294 22.3431 5.55515 22.61 5.55515C22.877 5.55515 23.1309 5.60249 23.3733 5.69852ZM14.4999 10.6329C14.9202 10.6329 15.3304 10.6705 15.7304 10.7453C16.1236 10.819 16.5134 10.932 16.8993 11.0847L16.9035 11.0865L16.9045 11.0847C17.2729 11.2338 17.6222 11.4119 17.9526 11.6195C18.2799 11.825 18.5832 12.0571 18.8612 12.3153L18.8635 12.3177C19.1392 12.5786 19.3867 12.8627 19.606 13.1698C19.8274 13.4795 20.0171 13.807 20.1762 14.1524C20.1835 14.1687 20.1901 14.1851 20.196 14.2017C20.3484 14.5488 20.4629 14.8991 20.538 15.2529C20.6182 15.6281 20.6578 16.0124 20.6578 16.4062C20.6578 16.8003 20.6182 17.1848 20.538 17.5599C20.4596 17.9287 20.3388 18.2938 20.1762 18.6557L20.1743 18.6597L20.1762 18.6606C20.0171 19.006 19.8271 19.3332 19.606 19.643C19.3865 19.9501 19.1389 20.2341 18.8635 20.495L18.8612 20.4974C18.5827 20.7559 18.2799 20.9879 17.9521 21.1935C17.6222 21.401 17.2727 21.5789 16.9045 21.728C16.887 21.7349 16.8696 21.7413 16.8514 21.7466C16.4813 21.8898 16.1075 21.9969 15.7304 22.0674C15.3304 22.1424 14.92 22.1798 14.4999 22.1798C14.0796 22.1798 13.6696 22.1424 13.2696 22.0674C12.8762 21.9938 12.4866 21.8805 12.1005 21.728L12.0962 21.7263L12.0955 21.728C11.7271 21.5789 11.3776 21.4008 11.0474 21.1935C10.7199 20.9879 10.4168 20.7559 10.1388 20.4974L10.1365 20.495C9.86082 20.2339 9.61302 19.9501 9.39401 19.6427C9.17287 19.3332 8.98289 19.0055 8.82407 18.6606C8.81651 18.6442 8.80991 18.6278 8.80401 18.611C8.65131 18.2639 8.53709 17.9136 8.4618 17.5599C8.38204 17.1848 8.34192 16.8003 8.34192 16.4062C8.34192 16.0122 8.3818 15.6279 8.4618 15.2529C8.54039 14.884 8.66123 14.5187 8.82407 14.157L8.82572 14.153L8.82407 14.1524C8.98289 13.807 9.17311 13.4795 9.39401 13.17C9.61325 12.8627 9.86082 12.5788 10.1365 12.3177L10.1391 12.3155C10.4171 12.0573 10.7201 11.8252 11.0474 11.6197C11.3778 11.4124 11.7273 11.234 12.0957 11.0849C12.1132 11.0778 12.1307 11.0716 12.1486 11.0663C12.5189 10.9232 12.8922 10.8163 13.2696 10.7457C13.6696 10.6705 14.0796 10.6329 14.4999 10.6329ZM15.4821 11.9135C15.1649 11.854 14.8378 11.8243 14.4999 11.8243C14.1622 11.8243 13.8351 11.854 13.5176 11.9135C13.2094 11.9712 12.9151 12.054 12.6348 12.1617C12.6225 12.1675 12.61 12.1732 12.597 12.1783C12.2907 12.3025 12.0089 12.4449 11.7521 12.606C11.4935 12.7682 11.2542 12.9518 11.0337 13.1563C10.8154 13.3631 10.6196 13.5879 10.4463 13.8307C10.2745 14.0712 10.1225 14.3351 9.99038 14.6223L9.98873 14.6216C9.86577 14.8953 9.77232 15.1834 9.70765 15.4856C9.6444 15.783 9.61278 16.0896 9.61278 16.4062C9.61278 16.7229 9.6444 17.0295 9.70765 17.3271C9.76925 17.6161 9.85775 17.892 9.97268 18.1548C9.97882 18.1665 9.98495 18.178 9.99038 18.1902C10.1225 18.4774 10.2745 18.7411 10.4461 18.9816C10.6193 19.2243 10.8152 19.4491 11.0337 19.656C11.2542 19.8607 11.4937 20.0441 11.7524 20.2063C12.0089 20.3673 12.2904 20.5098 12.597 20.6339L12.5963 20.6355C12.8885 20.7508 13.1955 20.8386 13.5179 20.8988C13.8351 20.9583 14.1624 20.9877 14.5001 20.9877C14.8378 20.9877 15.1652 20.9581 15.4824 20.8988C15.7908 20.841 16.0849 20.7583 16.3655 20.6505C16.3775 20.6448 16.3902 20.639 16.4032 20.6339C16.7093 20.5098 16.9909 20.3673 17.2476 20.2063C17.5063 20.0441 17.7458 19.8604 17.9663 19.656C18.1848 19.4491 18.3807 19.2246 18.5539 18.9818C18.7255 18.7413 18.8775 18.4774 19.0094 18.1902L19.0113 18.1909C19.1342 17.9172 19.2279 17.6291 19.2923 17.3271C19.3556 17.0295 19.3872 16.7229 19.3872 16.4062C19.3872 16.0896 19.3554 15.783 19.2923 15.4856C19.2305 15.1964 19.1425 14.9208 19.0273 14.6577C19.0209 14.6462 19.0153 14.6345 19.0094 14.6223C18.8775 14.3351 18.7255 14.0712 18.5534 13.8307C18.3807 13.5879 18.1846 13.3631 17.9663 13.1565C17.7458 12.9521 17.5063 12.7684 17.2476 12.6062C16.9909 12.4452 16.7093 12.3027 16.4032 12.1786L16.4037 12.177C16.1118 12.0617 15.8047 11.9739 15.4821 11.9135Z" fill="black"/>
</g>
<defs>
<clipPath id="clip0_5_104">
<rect width="32" height="30" fill="white"/>
</clipPath>
</defs>
</svg>
