<svg width="31" height="33" viewBox="0 0 31 33" fill="none" xmlns="http://www.w3.org/2000/svg">
<path d="M13.9296 28.534C14.3398 28.534 14.6722 28.8417 14.6722 29.2215C14.6722 29.6012 14.3398 29.909 13.9296 29.909H4.63151C4.15529 29.909 3.72386 29.73 3.41031 29.4397C3.09676 29.1495 2.90344 28.7501 2.90344 28.3092V4.6908C2.90344 4.24994 3.09676 3.85056 3.41031 3.56029C3.72386 3.27003 4.15529 3.09106 4.63151 3.09106H25.854C26.3302 3.09106 26.7617 3.27221 27.0752 3.56029C27.3888 3.85056 27.5821 4.24994 27.5821 4.6908V15.6336C27.5821 16.0133 27.2497 16.3211 26.8395 16.3211C26.4292 16.3211 26.0968 16.0133 26.0968 15.6336V4.6908C26.0968 4.62969 26.0685 4.57295 26.0237 4.53366C25.979 4.49219 25.9177 4.46601 25.854 4.46601H4.63151C4.5655 4.46601 4.50421 4.49219 4.45941 4.53148C4.41698 4.57513 4.38869 4.62969 4.38869 4.6908V28.307C4.38869 28.3682 4.41698 28.4249 4.46177 28.4642C4.50656 28.5056 4.56786 28.5318 4.63387 28.5318H13.9296V28.534ZM26.1723 19.3154C26.052 19.2084 25.9129 19.1582 25.7526 19.1604C25.5923 19.1626 25.4556 19.2215 25.3424 19.3306L24.4206 20.2189L27.0068 22.5301L27.9381 21.6331C28.0489 21.5284 28.096 21.3931 28.0937 21.2447C28.0913 21.0984 28.0347 20.9653 27.9216 20.8649L26.1723 19.3154ZM21.3417 27.9731C20.9998 28.0735 20.6604 28.1783 20.3209 28.2809C19.979 28.3856 19.6396 28.4926 19.3001 28.5973C18.4962 28.8417 18.0459 28.9771 17.9516 29.0011C17.8596 29.0273 17.9138 28.6781 18.1166 27.9513L18.7555 25.6707L23.6002 21.0046L26.1841 23.3071L21.3417 27.9731ZM10.3485 12.0566C9.93831 12.0566 9.6059 11.7488 9.6059 11.3691C9.6059 10.9893 9.93831 10.6816 10.3485 10.6816H20.1417C20.5519 10.6816 20.8843 10.9893 20.8843 11.3691C20.8843 11.7488 20.5519 12.0566 20.1417 12.0566H10.3485ZM10.3485 21.8099C9.93831 21.8099 9.60354 21.4978 9.60354 21.1137C9.60354 20.7296 9.93596 20.4175 10.3485 20.4175H15.1744C15.5846 20.4175 15.9194 20.7296 15.9194 21.1137C15.9194 21.4978 15.587 21.8099 15.1744 21.8099H10.3485ZM10.3485 16.93C9.93831 16.93 9.6059 16.6222 9.6059 16.2425C9.6059 15.8627 9.93831 15.555 10.3485 15.555H20.1417C20.5519 15.555 20.8843 15.8627 20.8843 16.2425C20.8843 16.6222 20.5519 16.93 20.1417 16.93H10.3485Z" fill="black"/>
</svg>
