<svg width="36" height="62" viewBox="0 0 36 62" fill="none" xmlns="http://www.w3.org/2000/svg">
<g clip-path="url(#clip0_26_299)">
<path fill-rule="evenodd" clip-rule="evenodd" d="M0.597573 0.0100911H13.6086L25.3291 21.4285C25.5801 21.8827 25.9467 22.2409 26.3635 22.4679H8.86818L0.597573 0V0.0100911ZM18.0025 25.8283C27.9453 25.8283 36.005 33.9264 36.005 43.9167C36.005 53.9069 27.9453 62.005 18.0025 62.005C8.0597 62 0 53.9019 0 43.9116C0 33.9214 8.0597 25.8283 18.0025 25.8283ZM18.0025 33.4723L21.0105 40.849L28.9296 41.4494L22.8685 46.6161L24.7516 54.356L18.0025 50.153L11.2535 54.356L13.1366 46.6161L7.07044 41.4443L14.9895 40.8439L18.0025 33.4723ZM19.5994 0.0100911H34.8249L28.6986 16.6504L19.5994 0.0100911Z" fill="#E6AA4B"/>
</g>
<defs>
<clipPath id="clip0_26_299">
<rect width="36" height="62" fill="white"/>
</clipPath>
</defs>
</svg>
